# xmcd
#
# Track frame offsets: 
#        150
#        18560
#        28422
#        38517
#        49755
#        59707
#        69402
#        87395
#        101867
#        114945
#        125675
#        141685
#        154285
#        170655
#        182392
#        195390
#        208550
#        225440
#        240030
#
# Disc length: 3369 seconds
#
# Revision: 3
# Processed by: cddbd v1.5PL3 Copyright (c) Steve Scherf et al.
# Submitted via: ExactAudioCopy v0.90b4
#
DISCID=090d2713
DTITLE=Marty Robins - His Greatest Hits And Finest Performances - Disc
DTITLE=3
DYEAR=1983
DGENRE=Country
TTITLE0=You Gave Me A Mountain
TTITLE1=Just Married
TTITLE2=Stairway Of Love
TTITLE3=Begging To You
TTITLE4=Knee Deep In The Blues
TTITLE5=Long Tall Sally
TTITLE6=Big Iron
TTITLE7=Cool Water
TTITLE8=The Hanging Tree
TTITLE9=Billy The Kid
TTITLE10=The Strawberry Roan
TTITLE11=The Streets Of Laredo
TTITLE12=Adios Amigo
TTITLE13=Yellow Roses
TTITLE14=Falling Out Of Love
TTITLE15=Return To Me
TTITLE16=My Elusive Dreams
TTITLE17=Some Memories Just Won't Die
TTITLE18=Tumbling Tumbleweeds
EXTD=
EXTT0=
EXTT1=
EXTT2=
EXTT3=
EXTT4=
EXTT5=
EXTT6=
EXTT7=
EXTT8=
EXTT9=
EXTT10=
EXTT11=
EXTT12=
EXTT13=
EXTT14=
EXTT15=
EXTT16=
EXTT17=
EXTT18=
PLAYORDER=
